<svg xmlns="http://www.w3.org/2000/svg" xmlns:xlink="http://www.w3.org/1999/xlink" width="500" zoomAndPan="magnify" viewBox="0 0 375 374.999991" height="500" preserveAspectRatio="xMidYMid meet" version="1.0"><defs><g/><clipPath id="c44f0e9fa7"><path d="M 98.359375 178.214844 L 147.109375 178.214844 L 147.109375 226.964844 L 98.359375 226.964844 Z M 98.359375 178.214844 " clip-rule="nonzero"/></clipPath><clipPath id="d188c826ff"><path d="M 118.136719 141.867188 L 166.886719 141.867188 L 166.886719 190.617188 L 118.136719 190.617188 Z M 118.136719 141.867188 " clip-rule="nonzero"/></clipPath></defs><rect x="-37.5" width="450" fill="#ffffff" y="-37.499999" height="449.999989" fill-opacity="1"/><rect x="-37.5" width="450" fill="#ffffff" y="-37.499999" height="449.999989" fill-opacity="1"/><g fill="#222222" fill-opacity="1"><g transform="translate(18.012392, 174.345385)"><g><path d="M 1.851562 0 L 28.304688 0 L 28.304688 -3.738281 L 6.84375 -3.738281 L 6.84375 -11.765625 L 26.453125 -11.765625 L 26.453125 -15.207031 L 6.84375 -15.207031 L 6.84375 -22.457031 L 27.933594 -22.457031 L 27.933594 -26.230469 L 1.851562 -26.230469 Z M 1.851562 0 "/></g></g></g><g fill="#222222" fill-opacity="1"><g transform="translate(47.054302, 174.345385)"><g><path d="M 16.613281 0.851562 C 25.824219 0.851562 31.78125 -3.738281 31.78125 -11.949219 L 31.78125 -26.230469 L 26.636719 -26.230469 L 26.636719 -12.097656 C 26.636719 -6.214844 22.679688 -3.253906 16.648438 -3.253906 C 10.65625 -3.253906 6.660156 -6.214844 6.660156 -12.097656 L 6.660156 -26.230469 L 1.480469 -26.230469 L 1.480469 -11.949219 C 1.480469 -3.738281 7.4375 0.851562 16.613281 0.851562 Z M 16.613281 0.851562 "/></g></g></g><g fill="#222222" fill-opacity="1"><g transform="translate(80.31376, 174.345385)"><g><path d="M 1.851562 0 L 6.808594 0 L 6.808594 -21.238281 L 6.84375 -21.238281 L 25.640625 0 L 32.078125 0 L 32.078125 -26.230469 L 27.082031 -26.230469 L 27.082031 -5.03125 L 27.046875 -5.03125 L 8.289062 -26.230469 L 1.851562 -26.230469 Z M 1.851562 0 "/></g></g></g><g clip-path="url(#c44f0e9fa7)"><path fill="#222222" d="M 147.308594 202.6875 C 147.308594 203.492188 147.269531 204.289062 147.191406 205.085938 C 147.113281 205.886719 146.996094 206.675781 146.839844 207.464844 C 146.683594 208.25 146.488281 209.027344 146.253906 209.792969 C 146.023438 210.558594 145.753906 211.3125 145.445312 212.054688 C 145.140625 212.796875 144.796875 213.519531 144.417969 214.226562 C 144.042969 214.933594 143.628906 215.621094 143.183594 216.285156 C 142.738281 216.953125 142.261719 217.59375 141.753906 218.214844 C 141.246094 218.835938 140.707031 219.429688 140.140625 219.996094 C 139.574219 220.5625 138.980469 221.097656 138.359375 221.609375 C 137.742188 222.117188 137.097656 222.59375 136.433594 223.039062 C 135.765625 223.484375 135.078125 223.894531 134.371094 224.273438 C 133.664062 224.652344 132.941406 224.992188 132.199219 225.300781 C 131.460938 225.605469 130.707031 225.875 129.9375 226.109375 C 129.171875 226.34375 128.394531 226.535156 127.609375 226.691406 C 126.824219 226.847656 126.03125 226.96875 125.234375 227.046875 C 124.433594 227.125 123.636719 227.164062 122.835938 227.164062 C 122.03125 227.164062 121.234375 227.125 120.433594 227.046875 C 119.636719 226.96875 118.847656 226.847656 118.058594 226.691406 C 117.273438 226.535156 116.496094 226.34375 115.730469 226.109375 C 114.960938 225.875 114.207031 225.605469 113.46875 225.300781 C 112.726562 224.992188 112.003906 224.652344 111.296875 224.273438 C 110.589844 223.894531 109.902344 223.484375 109.238281 223.039062 C 108.570312 222.59375 107.925781 222.117188 107.308594 221.609375 C 106.6875 221.097656 106.09375 220.5625 105.527344 219.996094 C 104.960938 219.429688 104.421875 218.835938 103.914062 218.214844 C 103.40625 217.59375 102.929688 216.953125 102.484375 216.285156 C 102.039062 215.621094 101.628906 214.933594 101.25 214.226562 C 100.871094 213.519531 100.53125 212.796875 100.222656 212.054688 C 99.914062 211.3125 99.644531 210.558594 99.414062 209.792969 C 99.179688 209.027344 98.988281 208.25 98.828125 207.464844 C 98.671875 206.675781 98.554688 205.886719 98.476562 205.085938 C 98.398438 204.289062 98.359375 203.492188 98.359375 202.6875 C 98.359375 201.886719 98.398438 201.085938 98.476562 200.289062 C 98.554688 199.492188 98.671875 198.699219 98.828125 197.914062 C 98.988281 197.128906 99.179688 196.351562 99.414062 195.585938 C 99.644531 194.816406 99.914062 194.0625 100.222656 193.324219 C 100.53125 192.582031 100.871094 191.859375 101.25 191.152344 C 101.628906 190.445312 102.039062 189.757812 102.484375 189.089844 C 102.929688 188.425781 103.40625 187.78125 103.914062 187.164062 C 104.421875 186.542969 104.960938 185.949219 105.527344 185.382812 C 106.09375 184.816406 106.6875 184.277344 107.308594 183.769531 C 107.925781 183.261719 108.570312 182.785156 109.238281 182.339844 C 109.902344 181.894531 110.589844 181.480469 111.296875 181.105469 C 112.003906 180.726562 112.726562 180.382812 113.46875 180.078125 C 114.207031 179.769531 114.960938 179.5 115.730469 179.269531 C 116.496094 179.035156 117.273438 178.839844 118.058594 178.683594 C 118.847656 178.527344 119.636719 178.410156 120.433594 178.332031 C 121.234375 178.253906 122.03125 178.214844 122.835938 178.214844 C 123.636719 178.214844 124.433594 178.253906 125.234375 178.332031 C 126.03125 178.410156 126.824219 178.527344 127.609375 178.683594 C 128.394531 178.839844 129.171875 179.035156 129.9375 179.269531 C 130.707031 179.5 131.460938 179.769531 132.199219 180.078125 C 132.941406 180.382812 133.664062 180.726562 134.371094 181.105469 C 135.078125 181.480469 135.765625 181.894531 136.433594 182.339844 C 137.097656 182.785156 137.742188 183.261719 138.359375 183.769531 C 138.980469 184.277344 139.574219 184.816406 140.140625 185.382812 C 140.707031 185.949219 141.246094 186.542969 141.753906 187.164062 C 142.261719 187.78125 142.738281 188.425781 143.183594 189.089844 C 143.628906 189.757812 144.042969 190.445312 144.417969 191.152344 C 144.796875 191.859375 145.140625 192.582031 145.445312 193.324219 C 145.753906 194.0625 146.023438 194.816406 146.253906 195.585938 C 146.488281 196.351562 146.683594 197.128906 146.839844 197.914062 C 146.996094 198.699219 147.113281 199.492188 147.191406 200.289062 C 147.269531 201.085938 147.308594 201.886719 147.308594 202.6875 Z M 147.308594 202.6875 " fill-opacity="1" fill-rule="nonzero"/></g><path fill="#ffffff" d="M 132.917969 202.6875 C 132.917969 203.351562 132.851562 204.007812 132.722656 204.65625 C 132.59375 205.304688 132.402344 205.9375 132.148438 206.546875 C 131.898438 207.160156 131.585938 207.742188 131.21875 208.289062 C 130.851562 208.839844 130.433594 209.351562 129.964844 209.820312 C 129.496094 210.285156 128.988281 210.703125 128.4375 211.074219 C 127.886719 211.441406 127.304688 211.75 126.691406 212.003906 C 126.082031 212.257812 125.449219 212.449219 124.800781 212.578125 C 124.152344 212.707031 123.496094 212.773438 122.835938 212.773438 C 122.171875 212.773438 121.515625 212.707031 120.867188 212.578125 C 120.21875 212.449219 119.585938 212.257812 118.976562 212.003906 C 118.363281 211.75 117.78125 211.441406 117.230469 211.074219 C 116.683594 210.703125 116.171875 210.285156 115.703125 209.820312 C 115.234375 209.351562 114.816406 208.839844 114.449219 208.289062 C 114.082031 207.742188 113.773438 207.160156 113.519531 206.546875 C 113.265625 205.9375 113.074219 205.304688 112.945312 204.65625 C 112.816406 204.007812 112.75 203.351562 112.75 202.6875 C 112.75 202.027344 112.816406 201.371094 112.945312 200.722656 C 113.074219 200.070312 113.265625 199.441406 113.519531 198.828125 C 113.773438 198.21875 114.082031 197.636719 114.449219 197.085938 C 114.816406 196.535156 115.234375 196.027344 115.703125 195.558594 C 116.171875 195.089844 116.683594 194.671875 117.230469 194.304688 C 117.78125 193.9375 118.363281 193.625 118.976562 193.371094 C 119.585938 193.121094 120.21875 192.929688 120.867188 192.800781 C 121.515625 192.667969 122.171875 192.605469 122.835938 192.605469 C 123.496094 192.605469 124.152344 192.667969 124.800781 192.800781 C 125.449219 192.929688 126.082031 193.121094 126.691406 193.371094 C 127.304688 193.625 127.886719 193.9375 128.4375 194.304688 C 128.988281 194.671875 129.496094 195.089844 129.964844 195.558594 C 130.433594 196.027344 130.851562 196.535156 131.21875 197.085938 C 131.585938 197.636719 131.898438 198.21875 132.148438 198.828125 C 132.402344 199.441406 132.59375 200.070312 132.722656 200.722656 C 132.851562 201.371094 132.917969 202.027344 132.917969 202.6875 Z M 132.917969 202.6875 " fill-opacity="1" fill-rule="nonzero"/><g clip-path="url(#d188c826ff)"><path fill="#222222" d="M 167.085938 166.339844 C 167.085938 167.144531 167.046875 167.941406 166.96875 168.742188 C 166.890625 169.539062 166.769531 170.328125 166.613281 171.117188 C 166.457031 171.902344 166.265625 172.679688 166.03125 173.445312 C 165.796875 174.214844 165.527344 174.96875 165.222656 175.707031 C 164.914062 176.449219 164.574219 177.171875 164.195312 177.878906 C 163.816406 178.585938 163.40625 179.273438 162.960938 179.9375 C 162.515625 180.605469 162.039062 181.25 161.53125 181.867188 C 161.019531 182.488281 160.484375 183.082031 159.917969 183.648438 C 159.351562 184.214844 158.757812 184.753906 158.136719 185.261719 C 157.519531 185.769531 156.875 186.246094 156.207031 186.691406 C 155.542969 187.136719 154.855469 187.546875 154.148438 187.925781 C 153.441406 188.304688 152.71875 188.644531 151.976562 188.953125 C 151.234375 189.257812 150.480469 189.53125 149.714844 189.761719 C 148.949219 189.996094 148.171875 190.1875 147.386719 190.34375 C 146.597656 190.503906 145.808594 190.621094 145.007812 190.699219 C 144.210938 190.777344 143.414062 190.816406 142.609375 190.816406 C 141.808594 190.816406 141.007812 190.777344 140.210938 190.699219 C 139.414062 190.621094 138.621094 190.503906 137.835938 190.34375 C 137.050781 190.1875 136.273438 189.996094 135.507812 189.761719 C 134.738281 189.53125 133.984375 189.257812 133.246094 188.953125 C 132.503906 188.644531 131.78125 188.304688 131.074219 187.925781 C 130.367188 187.546875 129.679688 187.136719 129.011719 186.691406 C 128.347656 186.246094 127.703125 185.769531 127.085938 185.261719 C 126.464844 184.753906 125.871094 184.214844 125.304688 183.648438 C 124.738281 183.082031 124.199219 182.488281 123.691406 181.867188 C 123.183594 181.25 122.707031 180.605469 122.261719 179.9375 C 121.816406 179.273438 121.402344 178.585938 121.027344 177.878906 C 120.648438 177.171875 120.304688 176.449219 120 175.707031 C 119.691406 174.96875 119.421875 174.214844 119.191406 173.445312 C 118.957031 172.679688 118.761719 171.902344 118.605469 171.117188 C 118.449219 170.328125 118.332031 169.539062 118.253906 168.742188 C 118.175781 167.941406 118.136719 167.144531 118.136719 166.339844 C 118.136719 165.539062 118.175781 164.738281 118.253906 163.941406 C 118.332031 163.144531 118.449219 162.351562 118.605469 161.566406 C 118.761719 160.78125 118.957031 160.003906 119.191406 159.238281 C 119.421875 158.46875 119.691406 157.714844 120 156.976562 C 120.304688 156.234375 120.648438 155.511719 121.027344 154.804688 C 121.402344 154.097656 121.816406 153.410156 122.261719 152.742188 C 122.707031 152.078125 123.183594 151.433594 123.691406 150.816406 C 124.199219 150.195312 124.738281 149.601562 125.304688 149.035156 C 125.871094 148.46875 126.464844 147.929688 127.085938 147.421875 C 127.703125 146.914062 128.347656 146.4375 129.011719 145.992188 C 129.679688 145.546875 130.367188 145.132812 131.074219 144.757812 C 131.78125 144.378906 132.503906 144.035156 133.246094 143.730469 C 133.984375 143.421875 134.738281 143.152344 135.507812 142.921875 C 136.273438 142.6875 137.050781 142.492188 137.835938 142.335938 C 138.621094 142.179688 139.414062 142.0625 140.210938 141.984375 C 141.007812 141.90625 141.808594 141.867188 142.609375 141.867188 C 143.414062 141.867188 144.210938 141.90625 145.007812 141.984375 C 145.808594 142.0625 146.597656 142.179688 147.386719 142.335938 C 148.171875 142.492188 148.949219 142.6875 149.714844 142.921875 C 150.480469 143.152344 151.234375 143.421875 151.976562 143.730469 C 152.71875 144.035156 153.441406 144.378906 154.148438 144.757812 C 154.855469 145.132812 155.542969 145.546875 156.207031 145.992188 C 156.875 146.4375 157.519531 146.914062 158.136719 147.421875 C 158.757812 147.929688 159.351562 148.46875 159.917969 149.035156 C 160.484375 149.601562 161.019531 150.195312 161.53125 150.816406 C 162.039062 151.433594 162.515625 152.078125 162.960938 152.742188 C 163.40625 153.410156 163.816406 154.097656 164.195312 154.804688 C 164.574219 155.511719 164.914062 156.234375 165.222656 156.976562 C 165.527344 157.714844 165.796875 158.46875 166.03125 159.238281 C 166.265625 160.003906 166.457031 160.78125 166.613281 161.566406 C 166.769531 162.351562 166.890625 163.144531 166.96875 163.941406 C 167.046875 164.738281 167.085938 165.539062 167.085938 166.339844 Z M 167.085938 166.339844 " fill-opacity="1" fill-rule="nonzero"/></g><path fill="#55ecf4" d="M 152.695312 166.339844 C 152.695312 167.003906 152.628906 167.660156 152.5 168.308594 C 152.371094 168.957031 152.179688 169.589844 151.925781 170.199219 C 151.671875 170.8125 151.363281 171.394531 150.996094 171.945312 C 150.628906 172.492188 150.210938 173.003906 149.742188 173.472656 C 149.273438 173.941406 148.761719 174.359375 148.210938 174.726562 C 147.664062 175.09375 147.082031 175.402344 146.46875 175.65625 C 145.859375 175.910156 145.226562 176.101562 144.578125 176.230469 C 143.929688 176.359375 143.273438 176.425781 142.609375 176.425781 C 141.949219 176.425781 141.292969 176.359375 140.644531 176.230469 C 139.992188 176.101562 139.363281 175.910156 138.75 175.65625 C 138.140625 175.402344 137.558594 175.09375 137.007812 174.726562 C 136.457031 174.359375 135.949219 173.941406 135.480469 173.472656 C 135.011719 173.003906 134.59375 172.492188 134.226562 171.945312 C 133.859375 171.394531 133.546875 170.8125 133.292969 170.199219 C 133.042969 169.589844 132.851562 168.957031 132.722656 168.308594 C 132.589844 167.660156 132.527344 167.003906 132.527344 166.339844 C 132.527344 165.679688 132.589844 165.023438 132.722656 164.375 C 132.851562 163.726562 133.042969 163.09375 133.292969 162.484375 C 133.546875 161.871094 133.859375 161.289062 134.226562 160.738281 C 134.59375 160.1875 135.011719 159.679688 135.480469 159.210938 C 135.949219 158.742188 136.457031 158.324219 137.007812 157.957031 C 137.558594 157.589844 138.140625 157.277344 138.75 157.023438 C 139.363281 156.773438 139.992188 156.582031 140.644531 156.453125 C 141.292969 156.324219 141.949219 156.257812 142.609375 156.257812 C 143.273438 156.257812 143.929688 156.324219 144.578125 156.453125 C 145.226562 156.582031 145.859375 156.773438 146.46875 157.023438 C 147.082031 157.277344 147.664062 157.589844 148.210938 157.957031 C 148.761719 158.324219 149.273438 158.742188 149.742188 159.210938 C 150.210938 159.679688 150.628906 160.1875 150.996094 160.738281 C 151.363281 161.289062 151.671875 161.871094 151.925781 162.484375 C 152.179688 163.09375 152.371094 163.726562 152.5 164.375 C 152.628906 165.023438 152.695312 165.679688 152.695312 166.339844 Z M 152.695312 166.339844 " fill-opacity="1" fill-rule="nonzero"/><g fill="#222222" fill-opacity="1"><g transform="translate(170.333929, 174.345385)"><g><path d="M 1.851562 0 L 6.957031 0 L 6.957031 -26.230469 L 1.851562 -26.230469 Z M 1.851562 0 "/></g></g></g><g fill="#222222" fill-opacity="1"><g transform="translate(179.138989, 174.345385)"><g><path d="M 0.148438 0 L 5.511719 0 L 8.507812 -5.734375 L 24.9375 -5.734375 L 27.933594 0 L 33.335938 0 L 19.792969 -26.230469 L 13.800781 -26.230469 Z M 10.027344 -9.324219 L 16.722656 -22.496094 L 16.796875 -22.496094 L 23.457031 -9.324219 Z M 10.027344 -9.324219 "/></g></g></g><g fill="#222222" fill-opacity="1"><g transform="translate(151.929647, 217.644977)"><g><path d="M 13.578125 0 L 19.3125 0 L 32.929688 -26.230469 L 27.414062 -26.230469 L 16.5 -4.808594 L 16.425781 -4.808594 L 5.476562 -26.230469 L 0 -26.230469 Z M 13.578125 0 "/></g></g></g><g fill="#222222" fill-opacity="1"><g transform="translate(184.85614, 217.644977)"><g><path d="M 0.148438 0 L 5.511719 0 L 8.507812 -5.734375 L 24.9375 -5.734375 L 27.933594 0 L 33.335938 0 L 19.792969 -26.230469 L 13.800781 -26.230469 Z M 10.027344 -9.324219 L 16.722656 -22.496094 L 16.796875 -22.496094 L 23.457031 -9.324219 Z M 10.027344 -9.324219 "/></g></g></g><g fill="#222222" fill-opacity="1"><g transform="translate(218.337579, 217.644977)"><g><path d="M 11.988281 0 L 17.128906 0 L 17.128906 -22.199219 L 28.894531 -22.199219 L 28.894531 -26.230469 L 0.222656 -26.230469 L 0.222656 -22.199219 L 11.988281 -22.199219 Z M 11.988281 0 "/></g></g></g><g fill="#222222" fill-opacity="1"><g transform="translate(247.453487, 217.644977)"><g><path d="M 1.851562 0 L 6.957031 0 L 6.957031 -26.230469 L 1.851562 -26.230469 Z M 1.851562 0 "/></g></g></g><g fill="#222222" fill-opacity="1"><g transform="translate(256.258548, 217.644977)"><g><path d="M 19.644531 0.925781 C 30.523438 0.925781 37.921875 -4.773438 37.921875 -13.097656 C 37.921875 -21.382812 30.523438 -27.15625 19.644531 -27.15625 C 8.804688 -27.15625 1.40625 -21.382812 1.40625 -13.097656 C 1.40625 -4.773438 8.804688 0.925781 19.644531 0.925781 Z M 19.644531 -3.070312 C 11.914062 -3.070312 6.546875 -7.175781 6.546875 -13.097656 C 6.546875 -19.015625 11.914062 -23.125 19.644531 -23.125 C 27.378906 -23.125 32.78125 -19.015625 32.78125 -13.097656 C 32.78125 -7.175781 27.378906 -3.070312 19.644531 -3.070312 Z M 19.644531 -3.070312 "/></g></g></g><g fill="#222222" fill-opacity="1"><g transform="translate(295.585365, 217.644977)"><g><path d="M 1.851562 0 L 6.808594 0 L 6.808594 -21.238281 L 6.84375 -21.238281 L 25.640625 0 L 32.078125 0 L 32.078125 -26.230469 L 27.082031 -26.230469 L 27.082031 -5.03125 L 27.046875 -5.03125 L 8.289062 -26.230469 L 1.851562 -26.230469 Z M 1.851562 0 "/></g></g></g><g fill="#222222" fill-opacity="1"><g transform="translate(329.510755, 217.644977)"><g><path d="M 16.90625 0.886719 C 25.085938 0.886719 30.558594 -2.515625 30.558594 -7.546875 C 30.558594 -11.765625 27.191406 -14.023438 19.386719 -15.09375 L 13.246094 -15.945312 C 9.136719 -16.5 7.398438 -17.535156 7.398438 -19.3125 C 7.398438 -21.71875 10.65625 -23.382812 15.207031 -23.382812 C 19.757812 -23.382812 23.9375 -21.53125 25.972656 -18.90625 L 28.378906 -21.902344 C 26.046875 -24.972656 20.976562 -27.121094 15.167969 -27.121094 C 7.660156 -27.121094 2.332031 -24.046875 2.332031 -18.980469 C 2.332031 -14.910156 5.253906 -12.839844 12.097656 -11.949219 L 18.3125 -10.988281 C 23.34375 -10.285156 25.492188 -9.0625 25.492188 -7.105469 C 25.492188 -4.699219 22.160156 -2.921875 17.167969 -2.921875 C 11.0625 -2.921875 5.4375 -5.511719 3.515625 -9.25 L 0.738281 -6.289062 C 3.21875 -2.070312 9.621094 0.886719 16.90625 0.886719 Z M 16.90625 0.886719 "/></g></g></g><g fill="#222222" fill-opacity="1"><g transform="translate(18.012392, 217.644977)"><g><path d="M 1.851562 0 L 6.957031 0 L 6.957031 -26.230469 L 1.851562 -26.230469 Z M 1.851562 0 "/></g></g></g><g fill="#222222" fill-opacity="1"><g transform="translate(26.817453, 217.644977)"><g><path d="M 1.851562 0 L 6.808594 0 L 6.808594 -21.238281 L 6.84375 -21.238281 L 25.640625 0 L 32.078125 0 L 32.078125 -26.230469 L 27.082031 -26.230469 L 27.082031 -5.03125 L 27.046875 -5.03125 L 8.289062 -26.230469 L 1.851562 -26.230469 Z M 1.851562 0 "/></g></g></g><g fill="#222222" fill-opacity="1"><g transform="translate(60.742843, 217.644977)"><g><path d="M 1.851562 0 L 6.808594 0 L 6.808594 -21.238281 L 6.84375 -21.238281 L 25.640625 0 L 32.078125 0 L 32.078125 -26.230469 L 27.082031 -26.230469 L 27.082031 -5.03125 L 27.046875 -5.03125 L 8.289062 -26.230469 L 1.851562 -26.230469 Z M 1.851562 0 "/></g></g></g></svg>